<svg width="19" height="13" viewBox="0 0 19 13" fill="none" xmlns="http://www.w3.org/2000/svg">
<path fill-rule="evenodd" clip-rule="evenodd" d="M12.2449 0.204184H12.2569L12.2556 0.200439L12.2449 0.204184ZM12.2039 0.218544L12.2449 0.204184H12.2187L12.2039 0.218544ZM12.1968 0.225423L12.2039 0.218544L12.1843 0.225398L12.1968 0.225423ZM12.1968 0.225423L11.9616 0.453767C14.6002 1.20252 15.8769 2.37181 15.8769 2.37181C14.1763 1.53821 12.6439 1.1214 11.1113 0.952934C10.0039 0.784465 8.89648 0.873066 7.96091 0.952934H7.70634C7.10809 0.952934 5.83521 1.20252 4.12957 1.87016C3.53513 2.12348 3.194 2.28946 3.194 2.28946C3.194 2.28946 4.46942 1.03904 7.27993 0.371404L7.10809 0.202936C7.10809 0.202936 4.97985 0.123069 2.6823 1.78779C2.6823 1.78779 0.384766 5.71124 0.384766 10.5482C0.384766 10.5482 1.65764 12.7195 5.14913 12.8019C5.14913 12.8019 5.65829 12.1367 6.1738 11.5515C4.21358 10.9674 3.44984 9.79942 3.44984 9.79942C3.44984 9.79942 3.62041 9.88178 3.87626 10.049H3.95263C3.98857 10.049 4.00646 10.0656 4.02542 10.0831C4.02661 10.0842 4.0278 10.0853 4.029 10.0864V10.0939C4.04937 10.1139 4.06719 10.1314 4.10538 10.1314C4.14239 10.1463 4.1794 10.1612 4.21636 10.1762C4.59886 10.3305 4.97576 10.4826 5.28916 10.6305C5.88231 10.8826 6.64476 11.1334 7.58033 11.2994C8.7641 11.4679 10.121 11.549 11.6663 11.2994L11.7157 11.2885C12.4629 11.1238 13.2101 10.959 13.9574 10.6318C14.094 10.5631 14.2393 10.4945 14.3921 10.4222C14.7946 10.2319 15.2494 10.0169 15.7356 9.71206C15.7356 9.71206 14.9719 10.8801 12.9289 11.4642C13.349 12.0456 13.9409 12.712 13.9409 12.712C16.8029 12.6507 18.2307 11.1817 18.6952 10.7039C18.7976 10.5986 18.8531 10.5415 18.8669 10.5581C18.8669 5.72871 16.5566 1.79777 16.5566 1.79777C14.4994 0.30022 12.5728 0.22691 12.1968 0.225423ZM6.68806 5.71121C7.57907 5.71121 8.29952 6.45996 8.29952 7.37718C8.29952 8.30064 7.57398 9.04939 6.68297 9.04939C5.79195 9.04939 5.06642 8.30064 5.06642 7.38468C5.06642 6.46122 5.79195 5.71496 6.68297 5.71496L6.68806 5.71121ZM12.4708 5.71121C13.3656 5.71121 14.0873 6.45996 14.0873 7.37718C14.0873 8.30064 13.3617 9.04939 12.4708 9.04939C11.5797 9.04939 10.8542 8.30064 10.8542 7.38468C10.8567 6.46122 11.5835 5.71496 12.4708 5.71496V5.71121Z" fill="white"/>
</svg>
