<svg width="16" height="16" viewBox="0 0 16 16" fill="none" xmlns="http://www.w3.org/2000/svg">
<path fill-rule="evenodd" clip-rule="evenodd" d="M7.15857 2.16663C6.64283 2.16663 6.21261 2.56078 6.16757 3.07455C6.07341 4.14874 6.04958 5.22772 6.09616 6.30458C6.03994 6.30835 5.98373 6.31228 5.92752 6.31637L4.93452 6.38876C4.29982 6.43502 3.94502 7.14273 4.28767 7.67899C5.01845 8.82267 5.96009 9.81692 7.06238 10.6087L7.46021 10.8945C7.78275 11.1262 8.21719 11.1262 8.53973 10.8945L8.93756 10.6087C10.0399 9.81692 10.9815 8.82267 11.7123 7.67899C12.0549 7.14273 11.7001 6.43503 11.0654 6.38876L10.0724 6.31637C10.0162 6.31228 9.96001 6.30835 9.90378 6.30458C9.95036 5.22772 9.92653 4.14874 9.83237 3.07455C9.78733 2.56078 9.35712 2.16663 8.84138 2.16663H7.15857ZM7.12097 6.74311C7.04516 5.55163 7.05931 4.35607 7.16334 3.16663H8.8366C8.94063 4.35608 8.95479 5.55163 8.87898 6.74311C8.87048 6.87669 8.91589 7.0081 9.00505 7.10793C9.09421 7.20776 9.21968 7.26767 9.35337 7.27425C9.56893 7.28487 9.78439 7.29803 9.99972 7.31373L10.7209 7.3663C10.0812 8.3085 9.28021 9.13134 8.35414 9.79658L7.99997 10.051L7.6458 9.79657C6.71973 9.13134 5.91874 8.3085 5.27905 7.3663L6.00022 7.31373C6.21555 7.29803 6.43101 7.28487 6.64658 7.27425C6.78026 7.26767 6.90573 7.20776 6.99489 7.10793C7.08405 7.0081 7.12946 6.87669 7.12097 6.74311Z" fill="white"/>
<path d="M3.83325 11.3333C3.83325 11.0572 3.60939 10.8333 3.33325 10.8333C3.05711 10.8333 2.83325 11.0572 2.83325 11.3333V12.6666C2.83325 13.311 3.35559 13.8333 3.99992 13.8333H11.9999C12.6443 13.8333 13.1666 13.311 13.1666 12.6666V11.3333C13.1666 11.0572 12.9427 10.8333 12.6666 10.8333C12.3904 10.8333 12.1666 11.0572 12.1666 11.3333V12.6666C12.1666 12.7587 12.092 12.8333 11.9999 12.8333H3.99992C3.90787 12.8333 3.83325 12.7587 3.83325 12.6666V11.3333Z" fill="white"/>
</svg>
