<svg width="23" height="23" viewBox="0 0 23 23" fill="none" xmlns="http://www.w3.org/2000/svg">
<path fill-rule="evenodd" clip-rule="evenodd" d="M11.4994 0.411133C8.48685 0.411133 8.11075 0.424994 6.92788 0.477669C5.74688 0.533115 4.9429 0.718861 4.23596 0.99332C3.50684 1.2761 2.88769 1.65591 2.2713 2.27228C1.65493 2.88867 1.2742 3.5069 0.992344 4.23694C0.717884 4.94388 0.531214 5.74785 0.476692 6.92886C0.421246 8.11172 0.410156 8.48782 0.410156 11.5004C0.410156 14.513 0.424018 14.8891 0.476692 16.072C0.532138 17.2521 0.717884 18.057 0.992344 18.7639C1.27512 19.4921 1.65493 20.1122 2.2713 20.7286C2.88769 21.3441 3.50592 21.7257 4.23596 22.0075C4.94382 22.2811 5.74779 22.4687 6.92788 22.5232C8.11075 22.5786 8.48685 22.5897 11.4994 22.5897C14.512 22.5897 14.8881 22.5758 16.071 22.5232C17.2511 22.4677 18.0561 22.2811 18.7629 22.0075C19.4912 21.7247 20.1112 21.3441 20.7276 20.7286C21.3431 20.1122 21.7247 19.4948 22.0065 18.7639C22.2801 18.057 22.4677 17.2521 22.5222 16.072C22.5776 14.8891 22.5887 14.513 22.5887 11.5004C22.5887 8.48782 22.5748 8.11172 22.5222 6.92886C22.4667 5.74877 22.2801 4.94296 22.0065 4.23694C21.7238 3.50782 21.3431 2.88867 20.7276 2.27228C20.1112 1.65591 19.4939 1.27517 18.7629 0.99332C18.0561 0.718861 17.2511 0.532191 16.071 0.477669C14.8881 0.422222 14.512 0.411133 11.4994 0.411133ZM17.4194 6.91218C18.153 6.91218 18.7501 6.31613 18.7501 5.58146C18.7501 4.84772 18.1521 4.25075 17.4194 4.25167C16.6856 4.25167 16.0886 4.84772 16.0886 5.58146C16.0886 6.31521 16.6846 6.91218 17.4194 6.91218ZM5.80513 11.5004C5.80513 8.35656 8.35289 5.80602 11.4995 5.80602C14.6433 5.80602 17.1938 8.35379 17.1938 11.5004C17.1938 14.6442 14.6461 17.1948 11.4995 17.1948C8.35566 17.1948 5.80513 14.647 5.80513 11.5004ZM11.4995 15.1969C9.45721 15.1969 7.80305 13.5427 7.80305 11.5005C7.80305 9.4582 9.45721 7.80404 11.4995 7.80404C13.5418 7.80404 15.1959 9.4582 15.1959 11.5005C15.1959 13.5427 13.5418 15.1969 11.4995 15.1969Z" fill="white"/>
</svg>
