<svg width="43" height="44" viewBox="0 0 43 44" fill="none"
    xmlns="http://www.w3.org/2000/svg">
    <path fill-rule="evenodd" clip-rule="evenodd" d="M21.2133 4.89971C23.2919 2.75106 25.0406 0.945945 25.0997 0.88855C25.2069 0.784104 24.7765 0.550352 24.6667 0.653296C24.6347 0.683328 22.5107 0.745395 19.9466 0.791445L15.2847 0.875035L12.6054 3.60548C11.1318 5.1071 8.95325 7.34851 7.76414 8.58635C6.57502 9.82418 4.37215 12.0871 2.86886 13.6153L0.135745 16.3934L4.36347 20.5471C6.68881 22.8315 9.08573 25.1664 9.69005 25.7357L10.7887 26.7708L14.9457 26.7561C17.232 26.7481 19.4654 26.6919 19.9086 26.631L20.7144 26.5205L16.172 22.0991C13.6738 19.6673 11.3403 17.4049 10.9864 17.0713C10.6327 16.738 10.3433 16.3951 10.3433 16.3095C10.3433 16.1403 11.066 15.3642 14.9092 11.4067C16.298 9.97651 19.1349 7.04836 21.2133 4.89971ZM39.1124 12.5948C37.926 11.4511 35.4912 9.09189 33.7018 7.35235C31.9123 5.61264 29.6487 3.40827 28.6713 2.4539L26.8944 0.718533L23.1604 4.5263C21.1065 6.62073 18.7715 9.01481 17.9715 9.84671L16.5166 11.3592L16.5171 13.4339C16.5174 14.575 16.5666 16.8014 16.6265 18.3816L16.7355 21.2543L21.8148 16.0874C24.6083 13.2455 26.9702 10.9204 27.0633 10.9204C27.1564 10.9204 28.1813 11.8464 29.3409 12.9783C30.5005 14.1101 31.9749 15.5422 32.6173 16.1608C34.7412 18.2062 37.924 21.2989 40.2215 23.5501C41.4673 24.771 42.5386 25.7697 42.602 25.7697C42.6654 25.7697 42.6663 23.5453 42.6039 20.8267L42.4902 15.8837L41.8799 15.2791C41.5442 14.9465 40.2989 13.7386 39.1124 12.5948ZM39.2696 24.4142C37.4493 22.6362 35.0577 20.3005 33.9549 19.2237L31.9499 17.266L30.782 17.3002C30.1396 17.3191 27.9003 17.3742 25.8059 17.4227L21.9978 17.5108L27.1824 22.5744C30.034 25.3594 32.367 27.7091 32.367 27.7961C32.367 27.8828 32.1981 28.1264 31.9916 28.3371C31.785 28.548 31.1363 29.2391 30.5497 29.873C29.9631 30.5068 27.7857 32.7529 25.7112 34.8642C23.6366 36.9755 21.3423 39.3405 20.6128 40.1199C19.8834 40.8992 18.8906 41.9498 18.4066 42.4545L17.5268 43.3724L22.486 43.3216L27.445 43.2707L28.6006 42.07C29.2361 41.4096 31.1882 39.4007 32.9386 37.6056C34.689 35.8107 36.9439 33.4832 37.9498 32.4334C38.9556 31.3838 40.4087 29.8773 41.1788 29.086L42.5792 27.6472L39.2696 24.4142ZM8.51678 26.3547C6.72251 24.6116 4.24084 22.2067 3.002 21.0104C1.76317 19.8143 0.567878 18.6876 0.345805 18.5069C-0.0290994 18.2015 -0.0499552 18.1999 0.0538233 18.4839C0.11539 18.6519 0.16561 20.9 0.16561 23.4794V28.1695L1.29182 29.2545C1.91116 29.8511 3.88362 31.7702 5.67505 33.5187C10.3342 38.0668 15.6903 43.1973 15.8362 43.2516C15.9047 43.2771 16.7049 42.5263 17.6143 41.5831C18.5236 40.6399 20.8307 38.2845 22.7413 36.3488L26.215 32.8293L26.1767 28.4236C26.1555 26.0005 26.1498 23.7255 26.164 23.3681L26.1897 22.7184L25.8371 23.0344C25.4874 23.3481 20.8928 28.0161 17.4901 31.5151L15.7157 33.3395L13.7474 31.4316C12.6648 30.3823 10.311 28.0977 8.51678 26.3547ZM24.355 22.004C24.3569 21.9059 24.0018 21.5069 23.5658 21.1177C23.1299 20.7284 22.4331 20.0769 22.0173 19.67L21.2614 18.9302L20.9457 19.3051C20.772 19.5111 20.0993 20.2297 19.4507 20.9018L18.2715 22.1238L19.855 23.6122L21.4385 25.1005L22.8951 23.6416C23.6961 22.839 24.3532 22.1023 24.355 22.004Z" fill="#fff"/>
</svg>
