<svg width="29" height="29" viewBox="0 0 29 29" fill="none" xmlns="http://www.w3.org/2000/svg">
<g clip-path="url(#clip0_146_164)">
<path d="M8.59019 22.4072C12.8125 22.4072 16.2354 18.8673 16.2354 14.5008C16.2354 10.1344 12.8123 6.59473 8.59019 6.59473C4.3681 6.59473 0.945312 10.1333 0.945312 14.5008C0.945312 18.8684 4.36785 22.4072 8.59019 22.4072Z" fill="white"/>
<path d="M20.7993 21.9415C22.9103 21.9415 24.6218 18.6096 24.6218 14.4991C24.6218 10.3896 22.9103 7.05664 20.7993 7.05664C18.6882 7.05664 16.9766 10.3896 16.9766 14.4991C16.9766 18.6085 18.6882 21.9415 20.7993 21.9415Z" fill="white"/>
<path d="M26.7116 21.1672C27.4541 21.1672 28.0561 18.182 28.0561 14.4992C28.0561 10.8166 27.4546 7.83105 26.7119 7.83105C25.9691 7.83105 25.3672 10.8174 25.3672 14.4992C25.3672 18.1809 25.9691 21.1672 26.7116 21.1672Z" fill="white"/>
</g>
<defs>
<clipPath id="clip0_146_164">
<rect width="27.1071" height="27.1071" fill="white" transform="translate(0.945312 0.946289)"/>
</clipPath>
</defs>
</svg>
