<svg width="20" height="16" viewBox="0 0 20 16" fill="none" xmlns="http://www.w3.org/2000/svg">
<path d="M19.0815 2.1522C18.4 2.45176 17.6722 2.65584 16.906 2.74902C17.6869 2.27849 18.2875 1.5369 18.5717 0.652065C17.8394 1.07947 17.0277 1.39058 16.1637 1.56385C15.4737 0.825336 14.4902 0.363281 13.3982 0.363281C11.3058 0.363281 9.60939 2.05979 9.60939 4.14981C9.60939 4.45015 9.64404 4.73893 9.70719 5.01539C6.55752 4.86676 3.76595 3.35431 1.89771 1.06791C1.56888 1.62392 1.38483 2.27002 1.38483 2.97388C1.38483 4.29074 2.05481 5.44818 3.06979 6.12817C2.44833 6.10815 1.86383 5.93719 1.35403 5.6538V5.70077C1.35403 7.53743 2.65779 9.06914 4.3928 9.41799C4.07475 9.50347 3.739 9.54968 3.39477 9.54968C3.15296 9.54968 2.92116 9.52657 2.68936 9.48345C3.17529 10.9874 4.57223 12.084 6.23486 12.1148C4.9411 13.1306 3.30158 13.7359 1.53577 13.7359C1.23544 13.7359 0.935871 13.7182 0.634766 13.6843C2.32049 14.7578 4.30655 15.3855 6.45433 15.3855C13.4268 15.3855 17.2348 9.61282 17.2348 4.61494C17.2348 4.454 17.2348 4.29151 17.2233 4.12979C17.9633 3.5992 18.6094 2.92845 19.1176 2.1676L19.0815 2.1522Z" fill="white"/>
</svg>
