<svg width="25" height="17" viewBox="0 0 25 17" fill="none" xmlns="http://www.w3.org/2000/svg">
<path d="M24.3081 2.82288C24.1653 2.33471 23.8928 1.88993 23.5172 1.53154C23.1414 1.17315 22.6751 0.913279 22.1633 0.777034C20.2425 0.286147 12.5121 0.286147 12.5121 0.286147C12.5121 0.286147 4.80114 0.276349 2.86082 0.777034C2.34904 0.913279 1.88277 1.17315 1.50706 1.53154C1.13135 1.88993 0.858919 2.33471 0.716091 2.82288C0.351981 4.69875 0.172473 6.60297 0.179909 8.51071C0.173879 10.4113 0.353381 12.3082 0.716091 14.177C0.858919 14.6651 1.13135 15.1099 1.50706 15.4683C1.88277 15.8267 2.34904 16.0866 2.86082 16.2228C4.77956 16.7147 12.5121 16.7147 12.5121 16.7147C12.5121 16.7147 20.222 16.7147 22.1633 16.2228C22.6751 16.0866 23.1414 15.8267 23.5172 15.4683C23.8928 15.1099 24.1653 14.6651 24.3081 14.177C24.6632 12.3075 24.8351 10.4106 24.8217 8.51071C24.8365 6.60366 24.6646 4.69944 24.3081 2.82288ZM10.0448 12.0292V4.98142L16.479 8.51071L10.0448 12.0292Z" fill="white"/>
</svg>
